<?xml version="1.0" encoding="UTF-8"?>
<svg version="1.1" xmlns="http://www.w3.org/2000/svg" width="42" height="54">
<path d="M0 0 C13.86 0 27.72 0 42 0 C42 17.82 42 35.64 42 54 C28.14 54 14.28 54 0 54 C0 36.18 0 18.36 0 0 Z " fill="#FDFDFD" transform="translate(0,0)"/>
<path d="M0 0 C9.57 0 19.14 0 29 0 C29 8.91 29 17.82 29 27 C19.43 27 9.86 27 0 27 C0 18.09 0 9.18 0 0 Z " fill="#FDFDFD" transform="translate(0,27)"/>
<path d="M0 0 C3.63 0 7.26 0 11 0 C11 17.82 11 35.64 11 54 C6.71 54 2.42 54 -2 54 C-2 45.09 -2 36.18 -2 27 C-11.57 27 -21.14 27 -31 27 C-31 26.67 -31 26.34 -31 26 C-21.43 26 -11.86 26 -2 26 C-2 18.08 -2 10.16 -2 2 C-1.34 2 -0.68 2 0 2 C0 1.34 0 0.68 0 0 Z " fill="#E7E7E7" transform="translate(31,0)"/>
<path d="M0 0 C0.66 0 1.32 0 2 0 C2 17.16 2 34.32 2 52 C1.34 52 0.68 52 0 52 C0 43.09 0 34.18 0 25 C-9.57 25 -19.14 25 -29 25 C-29 24.67 -29 24.34 -29 24 C-19.43 24 -9.86 24 0 24 C0 16.08 0 8.16 0 0 Z " fill="#919191" transform="translate(29,2)"/>
</svg>
