<?xml version="1.0" encoding="UTF-8"?>
<svg version="1.1" xmlns="http://www.w3.org/2000/svg" width="104" height="59">
<path d="M0 0 C34.32 0 68.64 0 104 0 C104 19.47 104 38.94 104 59 C69.68 59 35.36 59 0 59 C0 39.53 0 20.06 0 0 Z " fill="#FCFCFC" transform="translate(0,0)"/>
<path d="M0 0 C12.54 0 25.08 0 38 0 C38 0.33 38 0.66 38 1 C26.12 1 14.24 1 2 1 C2 18.82 2 36.64 2 55 C14.21 55 26.42 55 39 55 C39 55.99 39 56.98 39 58 C4.68 58 -29.64 58 -65 58 C-65 47.11 -65 36.22 -65 25 C-43.55 25 -22.1 25 0 25 C0 16.75 0 8.5 0 0 Z " fill="#F9F9F9" transform="translate(65,1)"/>
<path d="M0 0 C12.54 0 25.08 0 38 0 C38 0.33 38 0.66 38 1 C26.12 1 14.24 1 2 1 C2 19.15 2 37.3 2 56 C13.88 56 25.76 56 38 56 C38 56.33 38 56.66 38 57 C25.46 57 12.92 57 0 57 C0 47.1 0 37.2 0 27 C-21.45 27 -42.9 27 -65 27 C-65 26.34 -65 25.68 -65 25 C-43.55 25 -22.1 25 0 25 C0 16.75 0 8.5 0 0 Z " fill="#4B4B4B" transform="translate(65,1)"/>
</svg>
