<?xml version="1.0" encoding="UTF-8"?>
<svg version="1.1" xmlns="http://www.w3.org/2000/svg" width="88" height="43">
<path d="M0 0 C29.04 0 58.08 0 88 0 C88 14.19 88 28.38 88 43 C58.96 43 29.92 43 0 43 C0 28.81 0 14.62 0 0 Z " fill="#EEEEEE" transform="translate(0,0)"/>
<path d="M0 0 C0.9150959 0.44976448 0.9150959 0.44976448 1.84867859 0.90861511 C3.78271975 1.86091169 5.7099419 2.82607093 7.63671875 3.79296875 C10.17194528 5.05464133 12.70997889 6.3105098 15.25 7.5625 C15.85812531 7.8629422 16.46625061 8.1633844 17.09280396 8.47293091 C22.07216043 10.90989588 27.13073429 13.04647432 32.32421875 14.98046875 C32.32421875 15.31046875 32.32421875 15.64046875 32.32421875 15.98046875 C3.28421875 15.98046875 -25.75578125 15.98046875 -55.67578125 15.98046875 C-51.86571525 13.44042475 -47.85089836 11.71326457 -43.67578125 9.85546875 C-42.44601563 9.29666016 -42.44601563 9.29666016 -41.19140625 8.7265625 C-40.4025 8.37464844 -39.61359375 8.02273437 -38.80078125 7.66015625 C-38.08148438 7.33772949 -37.3621875 7.01530273 -36.62109375 6.68310547 C-34.67578125 5.98046875 -34.67578125 5.98046875 -31.67578125 5.98046875 C-31.67578125 5.32046875 -31.67578125 4.66046875 -31.67578125 3.98046875 C-28.83471473 2.59751335 -25.97636505 1.2546696 -23.11328125 -0.08203125 C-22.31341797 -0.47197266 -21.51355469 -0.86191406 -20.68945312 -1.26367188 C-19.89990234 -1.62783203 -19.11035156 -1.99199219 -18.296875 -2.3671875 C-17.57943115 -2.70758057 -16.8619873 -3.04797363 -16.12280273 -3.39868164 C-10.24587678 -4.88975444 -5.20800486 -2.59703835 0 0 Z " fill="#FCFCFC" transform="translate(55.67578125,27.01953125)"/>
<path d="M0 0 C4.145625 1.98 4.145625 1.98 8.375 4 C15.94803282 7.61093866 23.57144266 11.0776373 31.29833984 14.34765625 C34.79024902 15.85887739 37.43001906 17.19915304 40 20 C38.9584375 20.4846875 37.916875 20.969375 36.84375 21.46875 C35.39559655 22.14532675 33.94769968 22.82245285 32.5 23.5 C31.356521 24.03488037 31.356521 24.03488037 30.18994141 24.58056641 C26.2847926 26.41766814 22.40136558 28.28528684 18.5546875 30.2421875 C17.85150391 30.59990234 17.14832031 30.95761719 16.42382812 31.32617188 C15.09416416 32.00684828 13.76715729 32.69274993 12.44335938 33.38476562 C8.23884857 35.53786422 4.67474221 36.66435937 0 38 C0 25.46 0 12.92 0 0 Z " fill="#FAFAFA" transform="translate(2,2)"/>
<path d="M0 0 C0 12.21 0 24.42 0 37 C-6.74763108 34.75078964 -6.74763108 34.75078964 -9.77734375 33.30078125 C-10.44886475 32.98189941 -11.12038574 32.66301758 -11.81225586 32.33447266 C-12.51358643 31.99722168 -13.21491699 31.6599707 -13.9375 31.3125 C-15.4373027 30.5972424 -16.93730712 29.88240764 -18.4375 29.16796875 C-19.19289063 28.80751465 -19.94828125 28.44706055 -20.7265625 28.07568359 C-22.93565924 27.03044302 -25.152782 26.00528817 -27.375 24.98828125 C-28.05957275 24.6739917 -28.74414551 24.35970215 -29.44946289 24.03588867 C-30.74924563 23.44034779 -32.05046414 22.84792802 -33.35327148 22.2590332 C-35.98185191 21.04910936 -37.93505614 20.06494386 -40 18 C-38.93523438 17.50371094 -37.87046875 17.00742187 -36.7734375 16.49609375 C-28.50236955 12.62878991 -20.28349384 8.68928681 -12.1484375 4.54296875 C-2.87848101 0 -2.87848101 0 0 0 Z " fill="#FBFBFB" transform="translate(86,3)"/>
<path d="M0 0 C0 13.53 0 27.06 0 41 C-3.83231897 40.23353621 -6.36880239 39.53563268 -9.80859375 37.9609375 C-10.71407959 37.5481958 -11.61956543 37.1354541 -12.55249023 36.71020508 C-13.50454346 36.2695874 -14.45659668 35.82896973 -15.4375 35.375 C-16.41726807 34.92858154 -17.39703613 34.48216309 -18.40649414 34.0222168 C-22.76138842 32.02402984 -27.08257591 29.99832496 -31.3125 27.74609375 C-31.93584229 27.41625488 -32.55918457 27.08641602 -33.20141602 26.74658203 C-34.81961322 25.87592776 -36.42410226 24.97992756 -38.02734375 24.08203125 C-43.00251276 22.27109588 -46.65972525 23.43390222 -51.421875 25.4453125 C-52.52015625 25.99960937 -53.6184375 26.55390625 -54.75 27.125 C-58.109375 28.8203125 -58.109375 28.8203125 -61 30 C-61.99 29.67 -62.98 29.34 -64 29 C-58.72 26.36 -53.44 23.72 -48 21 C-48.33 20.01 -48.66 19.02 -49 18 C-48.10539062 18.11601562 -47.21078125 18.23203125 -46.2890625 18.3515625 C-40.15136903 18.34231434 -34.76867221 14.99442979 -29.375 12.375 C-27.15364583 11.3203125 -24.93229167 10.265625 -22.7109375 9.2109375 C-18.45199585 7.17388978 -18.45199585 7.17388978 -14.19445801 5.13391113 C-12.41632241 4.2838506 -10.6339881 3.4425905 -8.8515625 2.6015625 C-7.80049316 2.10221191 -6.74942383 1.60286133 -5.66650391 1.08837891 C-3 0 -3 0 0 0 Z M-11.3125 5.375 C-12.41549438 5.8999707 -12.41549438 5.8999707 -13.54077148 6.43554688 C-15.15101888 7.20244288 -16.76043505 7.97108593 -18.36914062 8.74121094 C-21.17635291 10.08437969 -23.98632836 11.42163568 -26.796875 12.7578125 C-31.86627924 15.16832508 -36.93374382 17.58287881 -42 20 C-38.95656427 22.34634268 -36.08114506 23.99710014 -32.5625 25.5625 C-28.19820563 27.53041812 -23.86047575 29.53622436 -19.546875 31.61328125 C-18.60126709 32.06823975 -17.65565918 32.52319824 -16.68139648 32.99194336 C-14.78116389 33.90802009 -12.88221706 34.8267691 -10.98461914 35.74829102 C-10.10926514 36.16908936 -9.23391113 36.5898877 -8.33203125 37.0234375 C-7.54546143 37.40419434 -6.7588916 37.78495117 -5.94848633 38.17724609 C-4.04543192 39.12966533 -4.04543192 39.12966533 -2 39 C-2 26.79 -2 14.58 -2 2 C-5.39350961 2 -8.30003808 3.92590723 -11.3125 5.375 Z " fill="#888888" transform="translate(88,1)"/>
<path d="M0 0 C4.4935558 0.63442851 8.2448633 2.38628566 12.26953125 4.37890625 C12.95053391 4.71043198 13.63153656 5.0419577 14.33317566 5.38352966 C16.49563594 6.43779055 18.65407518 7.50000558 20.8125 8.5625 C22.28294444 9.28112852 23.75364496 9.9992333 25.22460938 10.71679688 C28.81939994 12.47181363 32.41060711 14.23397181 36 16 C32.09825432 17.30058189 31.15061511 16.39973991 27.51953125 14.61328125 C26.43736328 14.08669922 25.35519531 13.56011719 24.24023438 13.01757812 C22.54350586 12.17356445 22.54350586 12.17356445 20.8125 11.3125 C19.70068359 10.76916016 18.58886719 10.22582031 17.44335938 9.66601562 C11.61225137 6.81087867 5.80286185 3.91205888 0 1 C0 0.67 0 0.34 0 0 Z " fill="#868686" transform="translate(3,2)"/>
</svg>
